<mxfile host="app.diagrams.net" modified="2023-12-21T13:40:37.365Z" agent="Mozilla/5.0 (Windows NT 10.0; Win64; x64) AppleWebKit/537.36 (KHTML, like Gecko) Chrome/120.0.0.0 Safari/537.36" version="22.1.11" etag="V3Xvgie9An8PXAzjOItS" type="github">
  <diagram name="Halaman-1" id="yCN50qUojE1OmDcoHvFG">
    <mxGraphModel>
      <root>
        <mxCell id="0" />
        <mxCell id="1" parent="0" />
      </root>
    </mxGraphModel>
  </diagram>
</mxfile>
